<svg width="105" height="90" viewBox="0 0 105 90" fill="none" xmlns="http://www.w3.org/2000/svg">
<g clip-path="url(#clip0_2_282)">
<path d="M38.0297 90.0742C44.248 90.0742 49.289 85.0333 49.289 78.815C49.289 72.5966 44.248 67.5557 38.0297 67.5557C31.8113 67.5557 26.7704 72.5966 26.7704 78.815C26.7704 85.0333 31.8113 90.0742 38.0297 90.0742Z" fill="#3F3F3F"/>
<path d="M11.0075 58.5486H31.2742C32.5172 58.5486 33.526 57.5398 33.526 56.2968C33.526 55.0538 32.5172 54.0449 31.2742 54.0449H11.0075C9.76444 54.0449 8.75562 55.0538 8.75562 56.2968C8.75562 57.5398 9.76444 58.5486 11.0075 58.5486Z" fill="#FF5634"/>
<path d="M92.0744 90.0742C98.2927 90.0742 103.334 85.0333 103.334 78.815C103.334 72.5966 98.2927 67.5557 92.0744 67.5557C85.856 67.5557 80.8151 72.5966 80.8151 78.815C80.8151 85.0333 85.856 90.0742 92.0744 90.0742Z" fill="#3F3F3F"/>
<path d="M92.0743 83.319C94.5616 83.319 96.578 81.3026 96.578 78.8152C96.578 76.3279 94.5616 74.3115 92.0743 74.3115C89.5869 74.3115 87.5706 76.3279 87.5706 78.8152C87.5706 81.3026 89.5869 83.319 92.0743 83.319Z" fill="white"/>
<path d="M38.0297 83.319C40.517 83.319 42.5334 81.3026 42.5334 78.8152C42.5334 76.3279 40.517 74.3115 38.0297 74.3115C35.5424 74.3115 33.526 76.3279 33.526 78.8152C33.526 81.3026 35.5424 83.319 38.0297 83.319Z" fill="white"/>
<path d="M92.0743 81.0663C91.1736 81.0663 90.498 80.6159 90.0476 79.7152L81.0402 61.7003C80.5898 60.5744 81.0402 59.2232 81.941 58.7729C83.0669 58.3225 84.418 58.7729 84.8684 59.6736L93.8758 77.6885C94.3262 78.8144 93.8758 80.1655 92.9751 80.6159C92.7499 81.0663 92.5247 81.0663 92.0743 81.0663Z" fill="#E13F1F"/>
<path d="M44.7853 78.8147H72.0258C74.3926 78.8147 76.2399 76.8663 76.7649 74.5584C78.5648 66.6461 85.3978 63.3756 91.3987 62.6013C94.5513 62.3761 94.3261 58.548 94.3261 58.548C89.8224 42.785 78.5631 31.5257 74.0594 27.022H69.5557C76.1244 39.7224 78.061 72.6851 60.5483 72.0591H44.7853V78.8147Z" fill="#E13F1F"/>
<path d="M56.0446 51.7925H33.526C29.0223 56.2962 24.5186 65.3036 24.5186 72.0592C29.0223 74.3111 44.7853 72.0592 44.7853 72.0592H60.5483C51.8223 72.0592 49.289 59.6132 56.0446 51.7925Z" fill="#E13F1F"/>
<path d="M78.5632 20.2661V29.2735C81.0403 29.2735 83.0669 27.2469 83.0669 24.7698C83.0669 22.2928 81.0403 20.2661 78.5632 20.2661Z" fill="#FFC107"/>
<path d="M61.1113 53.5938C61.1113 54.1748 60.7983 54.7062 60.2781 54.9629C58.7063 55.7353 54.8399 57.1967 48.0505 57.1967C38.8179 57.1967 31.8372 54.0441 31.8372 54.0441V52.9182C31.8372 49.8084 34.357 47.2886 37.4668 47.2886H54.8061C58.274 47.2886 61.1113 50.1259 61.1113 53.5938Z" fill="#3F3F3F"/>
<path d="M69.5738 27.8706C72.3999 28.7826 75.4061 29.2285 78.5632 29.2735V20.2661C75.4264 20.3089 72.3864 20.8133 69.4387 21.7546C68.1439 22.1667 67.304 23.4255 67.304 24.7833C67.304 26.1975 68.2295 27.4383 69.5738 27.8706Z" fill="#FF5634"/>
<path d="M38.0298 63.0518C30.5132 63.0518 22.7353 67.9501 19.201 74.9661C18.2603 76.8336 19.7886 78.8148 21.8796 78.8148H50.5787C52.3538 78.8148 53.8272 77.3616 53.481 75.6206C52.0394 68.3705 45.7599 63.0518 38.0298 63.0518Z" fill="#FF5634"/>
<path d="M56.0446 29.2742H71.8076C73.0506 29.2742 74.0594 28.2654 74.0594 27.0224C74.0594 25.7793 73.0506 24.7705 71.8076 24.7705H56.0446C54.8016 24.7705 53.7927 25.7793 53.7927 27.0224C53.7927 28.2654 54.8016 29.2742 56.0446 29.2742Z" fill="#3F3F3F"/>
<path d="M31.2741 29.2739H2V50.8303C2 52.6054 3.439 54.0444 5.21409 54.0444H28.06C29.8351 54.0444 31.2741 52.6054 31.2741 50.8303V29.2739Z" fill="#FDB52A"/>
<path d="M29.1314 27.022H4.14273C2.95933 27.022 2 27.9813 2 29.1647V33.7775H31.2741V29.1647C31.2741 27.9813 30.3148 27.022 29.1314 27.022Z" fill="#D99002"/>
<path d="M35.7778 2.25146H6.50366V23.8078C6.50366 25.5829 7.94266 27.0219 9.71775 27.0219H32.5637C34.3388 27.0219 35.7778 25.5829 35.7778 23.8078V2.25146Z" fill="#FDB52A"/>
<path d="M33.6351 0H8.64639C7.463 0 6.50366 0.959334 6.50366 2.14273V6.75557H35.7778V2.14273C35.7778 0.959333 34.8185 0 33.6351 0Z" fill="#D99002"/>
</g>
<defs>
<clipPath id="clip0_2_282">
<rect width="105" height="90" fill="white"/>
</clipPath>
</defs>
</svg>
